<svg width="40" height="40" viewBox="0 0 40 40" fill="none" xmlns="http://www.w3.org/2000/svg">
<path d="M20 0C31.0457 0 40 8.95431 40 20C40 31.0457 31.0457 40 20 40C8.95431 40 0 31.0457 0 20C0 8.95431 8.95431 0 20 0Z" fill="#FEE2E2"/>
<path d="M20 0C31.0457 0 40 8.95431 40 20C40 31.0457 31.0457 40 20 40C8.95431 40 0 31.0457 0 20C0 8.95431 8.95431 0 20 0Z" stroke="#E5E7EB"/>
<path d="M27 28H13V12H27V28Z" stroke="#E5E7EB"/>
<g clip-path="url(#clip0_2_2660)">
<path d="M15 13C15 12.4469 14.5531 12 14 12C13.4469 12 13 12.4469 13 13V14V23.5V27C13 27.5531 13.4469 28 14 28C14.5531 28 15 27.5531 15 27V23L17.0094 22.4969C18.2937 22.175 19.6531 22.325 20.8375 22.9156C22.2188 23.6062 23.8219 23.6906 25.2656 23.1469L26.35 22.7406C26.7406 22.5938 27 22.2219 27 21.8031V14.0656C27 13.3469 26.2438 12.8781 25.6 13.2L25.3 13.35C23.8531 14.075 22.15 14.075 20.7031 13.35C19.6062 12.8 18.3469 12.6625 17.1562 12.9594L15 13.5V13Z" fill="#DC2626"/>
</g>
<defs>
<clipPath id="clip0_2_2660">
<path d="M13 12H27V28H13V12Z" fill="white"/>
</clipPath>
</defs>
</svg>
