<svg width="16" height="16" viewBox="0 0 16 16" fill="none" xmlns="http://www.w3.org/2000/svg">
<g clip-path="url(#clip0_2_1884)">
<path d="M4.75322 1.19376C5.0626 1.47188 5.0876 1.94376 4.80947 2.25313L2.55947 4.75313C2.42197 4.90626 2.22822 4.99688 2.02197 5.00001C1.81572 5.00313 1.61885 4.92501 1.47197 4.78126L0.218848 3.53126C-0.0717774 3.23751 -0.0717774 2.76251 0.218848 2.46876C0.509473 2.17501 0.987598 2.17501 1.27822 2.46876L1.96885 3.15938L3.69072 1.24688C3.96885 0.937506 4.44072 0.912506 4.7501 1.19063L4.75322 1.19376ZM4.75322 6.19376C5.0626 6.47188 5.0876 6.94376 4.80947 7.25313L2.55947 9.75313C2.42197 9.90626 2.22822 9.99688 2.02197 10C1.81572 10.0031 1.61885 9.92501 1.47197 9.78126L0.218848 8.53126C-0.0749023 8.23751 -0.0749023 7.76251 0.218848 7.47188C0.512598 7.18126 0.987598 7.17813 1.27822 7.47188L1.96885 8.16251L3.69072 6.25001C3.96885 5.94063 4.44072 5.91563 4.7501 6.19376H4.75322ZM7.0001 3.00001C7.0001 2.44688 7.44697 2.00001 8.0001 2.00001H15.0001C15.5532 2.00001 16.0001 2.44688 16.0001 3.00001C16.0001 3.55313 15.5532 4.00001 15.0001 4.00001H8.0001C7.44697 4.00001 7.0001 3.55313 7.0001 3.00001ZM7.0001 8.00001C7.0001 7.44688 7.44697 7.00001 8.0001 7.00001H15.0001C15.5532 7.00001 16.0001 7.44688 16.0001 8.00001C16.0001 8.55313 15.5532 9.00001 15.0001 9.00001H8.0001C7.44697 9.00001 7.0001 8.55313 7.0001 8.00001ZM5.0001 13C5.0001 12.4469 5.44697 12 6.0001 12H15.0001C15.5532 12 16.0001 12.4469 16.0001 13C16.0001 13.5531 15.5532 14 15.0001 14H6.0001C5.44697 14 5.0001 13.5531 5.0001 13ZM1.5001 11.5C1.89792 11.5 2.27945 11.658 2.56076 11.9393C2.84206 12.2206 3.0001 12.6022 3.0001 13C3.0001 13.3978 2.84206 13.7794 2.56076 14.0607C2.27945 14.342 1.89792 14.5 1.5001 14.5C1.10227 14.5 0.720742 14.342 0.439437 14.0607C0.158133 13.7794 9.76473e-05 13.3978 9.76473e-05 13C9.76473e-05 12.6022 0.158133 12.2206 0.439437 11.9393C0.720742 11.658 1.10227 11.5 1.5001 11.5Z" fill="black"/>
</g>
<defs>
<clipPath id="clip0_2_1884">
<path d="M0 0H16V16H0V0Z" fill="white"/>
</clipPath>
</defs>
</svg>
