<svg width="16" height="16" viewBox="0 0 16 16" fill="none" xmlns="http://www.w3.org/2000/svg">
<g clip-path="url(#clip0_2_1932)">
<path d="M16 13C16 14.1031 15.1031 15 14 15H2C0.896875 15 0 14.1031 0 13V3C0 1.89688 0.896875 1 2 1H6C6.62813 1 7.22187 1.29687 7.6 1.8L8.2 2.6C8.3875 2.85312 8.68437 3 9 3H14C15.1031 3 16 3.89687 16 5V13ZM7.25 11.75C7.25 12.1656 7.58437 12.5 8 12.5C8.41562 12.5 8.75 12.1656 8.75 11.75V9.75H10.75C11.1656 9.75 11.5 9.41562 11.5 9C11.5 8.58437 11.1656 8.25 10.75 8.25H8.75V6.25C8.75 5.83437 8.41562 5.5 8 5.5C7.58437 5.5 7.25 5.83437 7.25 6.25V8.25H5.25C4.83437 8.25 4.5 8.58437 4.5 9C4.5 9.41562 4.83437 9.75 5.25 9.75H7.25V11.75Z" fill="white"/>
</g>
<defs>
<clipPath id="clip0_2_1932">
<path d="M0 0H16V16H0V0Z" fill="white"/>
</clipPath>
</defs>
</svg>
